<svg width="71" height="72" viewBox="0 0 71 72" fill="none" xmlns="http://www.w3.org/2000/svg">
<path d="M27.3047 60.449H67.4609V44.0701H27.3047V60.449ZM3.51465 34.1765H43.6738V17.7986H3.51465V34.1765ZM49.0674 7.94019H56.5488V3.87476H49.0674V7.94019ZM14.4688 7.92554H45.7432V3.86401H14.4688V7.92554ZM70.7529 62.5623L70.7285 62.613C70.523 63.0436 70.2381 63.3382 69.877 63.5193C69.6105 63.6528 69.3141 63.7194 68.9971 63.7419L68.6738 63.7507C65.9051 63.7161 63.1377 63.738 60.3643 63.738H59.8135C59.8109 65.5381 59.7838 67.2619 59.8291 68.9861V68.9871C59.8407 69.4329 59.7785 69.8394 59.6006 70.1951C59.4209 70.5543 59.1327 70.8419 58.7275 71.0642L58.6709 71.0955H12.3301L12.2744 71.0652C11.8643 70.8418 11.5812 70.5509 11.4053 70.1902C11.2317 69.8343 11.1709 69.4284 11.1719 68.9871C11.1938 58.6698 11.1865 48.3527 11.1865 38.0349V37.4626C8.12628 37.4627 5.15621 37.4644 2.18848 37.4626V37.4617C1.55924 37.4616 1.05448 37.3371 0.713867 36.9919C0.374008 36.6476 0.251018 36.1387 0.250977 35.5046C0.24915 29.1499 0.24915 22.7949 0.250977 16.4402L0.257812 16.2156C0.286422 15.7053 0.418544 15.2892 0.713867 14.9949C1.05117 14.6588 1.54811 14.5339 2.16309 14.533H11.1865V13.9812C11.1865 10.2206 11.2066 6.46605 11.1719 2.70874C11.168 2.26655 11.2281 1.8592 11.4023 1.50269C11.5789 1.14158 11.8634 0.850969 12.2744 0.628662L12.3301 0.598389H58.3555V0.420654L58.7246 0.621826C59.1349 0.845253 59.4186 1.13659 59.5947 1.4978C59.7685 1.85411 59.8291 2.2603 59.8271 2.7019C59.7998 8.26094 59.8125 13.818 59.8125 19.3787C59.8125 19.5433 59.8214 19.7516 59.8018 19.948C59.7213 20.8126 59.0624 21.4538 58.2119 21.4626C57.389 21.4707 56.7168 20.8933 56.6025 20.0671L56.5879 19.8982C56.5565 19.1638 56.5762 18.4198 56.5762 17.7V11.2654H14.4717V14.5281H44.8359C45.572 14.5281 46.1357 14.6254 46.499 14.9851C46.8629 15.3457 46.9609 15.9056 46.9609 16.6355V35.364C46.9609 36.0776 46.8559 36.6298 46.499 36.991C46.1412 37.353 45.5927 37.4607 44.8848 37.4607H14.4717V67.8171H56.5439V63.7341H26.2441C25.4547 63.7341 24.8634 63.6494 24.4932 63.2732C24.1244 62.8984 24.041 62.3014 24.041 61.5007V42.8416C24.041 42.1566 24.1555 41.6197 24.5146 41.2654C24.873 40.9121 25.4152 40.7996 26.1084 40.7996H56.5801V40.3025C56.5801 37.6597 56.5766 35.0155 56.582 32.3738C56.5821 31.9313 56.6767 31.5464 56.8799 31.24C57.0852 30.9305 57.388 30.7222 57.7637 30.6111L57.9619 30.5642C58.4226 30.4861 58.8607 30.6151 59.1953 30.8982C59.5753 31.2198 59.8074 31.727 59.8105 32.3201C59.8215 34.964 59.8145 37.6093 59.8145 40.2498V40.8015H61.5244C63.8969 40.8015 66.2628 40.8269 68.6289 40.7869C69.0705 40.7792 69.477 40.8407 69.835 41.0144C70.1966 41.19 70.4914 41.4715 70.7207 41.8738L70.7529 41.9314V62.5623Z" fill="#FD6F00" stroke="#FD6F00" stroke-width="0.5"/>
</svg>
