<svg width="33" height="33" viewBox="0 0 33 33" fill="none" xmlns="http://www.w3.org/2000/svg">
<g clip-path="url(#clip0_1_270)">
<path d="M10.2164 29.4306C22.4682 29.4306 29.1713 19.2776 29.1713 10.4757C29.1713 10.1903 29.1649 9.89848 29.1522 9.61305C30.4562 8.67006 31.5815 7.50202 32.4752 6.16383C31.2608 6.70414 29.9715 7.05701 28.6512 7.21039C30.0413 6.3771 31.0822 5.06802 31.5809 3.52585C30.2731 4.30091 28.8429 4.84765 27.3515 5.14263C26.3467 4.07494 25.0181 3.368 23.5712 3.13112C22.1243 2.89423 20.6396 3.14059 19.3468 3.8321C18.0539 4.52362 17.0249 5.62177 16.4187 6.95678C15.8126 8.2918 15.6631 9.78931 15.9934 11.2178C13.3453 11.0849 10.7546 10.397 8.38941 9.19864C6.02419 8.0003 3.93721 6.31827 2.26375 4.26162C1.41321 5.72804 1.15295 7.46331 1.53585 9.11474C1.91875 10.7662 2.91609 12.2098 4.32517 13.1524C3.26732 13.1188 2.23264 12.834 1.30662 12.3214V12.4039C1.30567 13.9428 1.83769 15.4345 2.81223 16.6256C3.78678 17.8166 5.1437 18.6333 6.65235 18.937C5.67242 19.2051 4.64394 19.2442 3.64649 19.0512C4.0722 20.3746 4.90048 21.5322 6.01573 22.3623C7.13098 23.1923 8.47756 23.6535 9.86753 23.6814C7.50777 25.5351 4.59278 26.5405 1.59205 26.5357C1.05989 26.5349 0.528263 26.5023 0 26.438C3.04842 28.3937 6.59455 29.4325 10.2164 29.4306Z" fill="white"/>
</g>
<defs>
<clipPath id="clip0_1_270">
<rect width="32.4752" height="32.4752" fill="white"/>
</clipPath>
</defs>
</svg>
